G75*
G70*
%OFA0B0*%
%FSLAX24Y24*%
%IPPOS*%
%LPD*%
%AMOC8*
5,1,8,0,0,1.08239X$1,22.5*
%
%ADD10R,0.0260X0.0800*%
%ADD11O,0.0960X0.0480*%
%ADD12R,0.0236X0.0866*%
%ADD13OC8,0.0534*%
%ADD14R,0.0591X0.0512*%
%ADD15R,0.0512X0.0591*%
%ADD16O,0.0480X0.0960*%
%ADD17R,0.0551X0.0748*%
%ADD18R,0.0197X0.0591*%
%ADD19R,0.0591X0.0197*%
%ADD20R,0.0630X0.1024*%
%ADD21R,0.0630X0.1378*%
%ADD22R,0.0984X0.1693*%
%ADD23R,0.0551X0.0315*%
%ADD24R,0.0748X0.0315*%
%ADD25C,0.0315*%
%ADD26C,0.0600*%
%ADD27R,0.0945X0.0945*%
%ADD28O,0.0560X0.1120*%
%ADD29O,0.1040X0.0520*%
%ADD30C,0.0100*%
%ADD31OC8,0.0317*%
%ADD32C,0.0240*%
%ADD33OC8,0.0356*%
%ADD34C,0.0160*%
%ADD35C,0.0320*%
%ADD36R,0.0356X0.0356*%
%ADD37OC8,0.0980*%
D10*
X002742Y009098D03*
X003242Y009098D03*
X003742Y009098D03*
X004242Y009098D03*
X004742Y009098D03*
X005242Y009098D03*
X005742Y009098D03*
X006242Y009098D03*
X006742Y009098D03*
X007242Y009098D03*
X007242Y013058D03*
X006742Y013058D03*
X006242Y013058D03*
X005742Y013058D03*
X005242Y013058D03*
X004742Y013058D03*
X004242Y013058D03*
X003742Y013058D03*
X003242Y013058D03*
X002742Y013058D03*
D11*
X012367Y012672D03*
X012367Y011672D03*
X012367Y010672D03*
X012367Y009672D03*
X015367Y009672D03*
X015367Y010672D03*
X015367Y011672D03*
X015367Y012672D03*
X017367Y012672D03*
X017367Y011672D03*
X017367Y010672D03*
X017367Y009672D03*
X020367Y009672D03*
X020367Y010672D03*
X020367Y011672D03*
X020367Y012672D03*
X022867Y011953D03*
X022867Y010953D03*
X022867Y009953D03*
X022867Y008172D03*
X022867Y007172D03*
X022867Y005391D03*
X022867Y004391D03*
X022867Y003391D03*
X020367Y003672D03*
X020367Y004672D03*
X020367Y005672D03*
X020367Y002672D03*
X017367Y002672D03*
X017367Y003672D03*
X017367Y004672D03*
X017367Y005672D03*
X015367Y005672D03*
X015367Y004672D03*
X015367Y003672D03*
X015367Y002672D03*
X012367Y002672D03*
X012367Y003672D03*
X012367Y004672D03*
X012367Y005672D03*
X022867Y013953D03*
X022867Y014953D03*
X022867Y016641D03*
X022867Y017641D03*
X017242Y018953D03*
X017242Y022953D03*
D12*
X010242Y023139D03*
X009742Y023139D03*
X009242Y023139D03*
X008742Y023139D03*
X008242Y023139D03*
X007742Y023139D03*
X007242Y023139D03*
X006742Y023139D03*
X006242Y023139D03*
X005742Y023139D03*
X005242Y023139D03*
X004742Y023139D03*
X004242Y023139D03*
X003742Y023139D03*
X003742Y019517D03*
X004242Y019517D03*
X004742Y019517D03*
X005242Y019517D03*
X005742Y019517D03*
X006242Y019517D03*
X006742Y019517D03*
X007242Y019517D03*
X007742Y019517D03*
X008242Y019517D03*
X008742Y019517D03*
X009242Y019517D03*
X009742Y019517D03*
X010242Y019517D03*
X009242Y018306D03*
X008742Y018306D03*
X008242Y018306D03*
X007742Y018306D03*
X007242Y018306D03*
X006742Y018306D03*
X006242Y018306D03*
X005742Y018306D03*
X005242Y018306D03*
X004742Y018306D03*
X004242Y018306D03*
X003742Y018306D03*
X003242Y018306D03*
X002742Y018306D03*
X002742Y013976D03*
X003242Y013976D03*
X003742Y013976D03*
X004242Y013976D03*
X004742Y013976D03*
X005242Y013976D03*
X005742Y013976D03*
X006242Y013976D03*
X006742Y013976D03*
X007242Y013976D03*
X007742Y013976D03*
X008242Y013976D03*
X008742Y013976D03*
X009242Y013976D03*
D13*
X018262Y020336D03*
X019050Y020336D03*
X019050Y021321D03*
X018262Y021321D03*
D14*
X019867Y015913D03*
X019867Y015244D03*
X021242Y012382D03*
X021242Y011713D03*
X021242Y011069D03*
X021242Y010400D03*
X021242Y009757D03*
X021242Y009088D03*
X021117Y008382D03*
X021117Y007713D03*
X021117Y007007D03*
X021117Y006338D03*
X021242Y005632D03*
X021242Y004963D03*
X021242Y004319D03*
X021242Y003650D03*
X021242Y003007D03*
X021242Y002338D03*
X016367Y003588D03*
X016367Y004257D03*
X011492Y002913D03*
X011492Y002244D03*
X016367Y011338D03*
X016367Y012007D03*
X012867Y015619D03*
X012867Y016288D03*
X012617Y016994D03*
X012617Y017663D03*
X003054Y023181D03*
X003054Y023851D03*
X001804Y015913D03*
X001804Y015244D03*
D15*
X002157Y019141D03*
X002826Y019141D03*
X002826Y019828D03*
X002157Y019828D03*
X005157Y024203D03*
X005826Y024203D03*
X006907Y024203D03*
X007576Y024203D03*
X008282Y024203D03*
X008951Y024203D03*
X009657Y024203D03*
X010326Y024203D03*
X012907Y022578D03*
X013576Y022578D03*
X015407Y022578D03*
X016076Y022578D03*
X018332Y024003D03*
X019001Y024003D03*
X019201Y015453D03*
X018532Y015453D03*
X017889Y015453D03*
X017220Y015453D03*
X022532Y009047D03*
X023201Y009047D03*
X023201Y006297D03*
X022532Y006297D03*
X006701Y002453D03*
X006032Y002453D03*
X004951Y002016D03*
X004282Y002016D03*
X003639Y002016D03*
X002970Y002016D03*
X002076Y008641D03*
X001407Y008641D03*
D16*
X011867Y008422D03*
X012867Y008422D03*
X014867Y008422D03*
X015867Y008422D03*
X016867Y008422D03*
D17*
X002902Y020650D03*
X001957Y020650D03*
X001957Y022382D03*
X002902Y022382D03*
D18*
X004917Y007987D03*
X005232Y007987D03*
X005547Y007987D03*
X005862Y007987D03*
X006177Y007987D03*
X006492Y007987D03*
X006807Y007987D03*
X007122Y007987D03*
X007437Y007987D03*
X007752Y007987D03*
X008067Y007987D03*
X008067Y003420D03*
X007752Y003420D03*
X007437Y003420D03*
X007122Y003420D03*
X006807Y003420D03*
X006492Y003420D03*
X006177Y003420D03*
X005862Y003420D03*
X005547Y003420D03*
X005232Y003420D03*
X004917Y003420D03*
D19*
X004208Y004129D03*
X004208Y004444D03*
X004208Y004759D03*
X004208Y005074D03*
X004208Y005388D03*
X004208Y005703D03*
X004208Y006018D03*
X004208Y006333D03*
X004208Y006648D03*
X004208Y006963D03*
X004208Y007278D03*
X008775Y007278D03*
X008775Y006963D03*
X008775Y006648D03*
X008775Y006333D03*
X008775Y006018D03*
X008775Y005703D03*
X008775Y005388D03*
X008775Y005074D03*
X008775Y004759D03*
X008775Y004444D03*
X008775Y004129D03*
D20*
X019742Y006964D03*
X019742Y008381D03*
X011554Y022557D03*
X011554Y023975D03*
D21*
X009117Y011641D03*
X009117Y009515D03*
X010367Y006016D03*
X010367Y003890D03*
D22*
X014492Y018445D03*
X014492Y021712D03*
D23*
X008837Y003294D03*
X008837Y002113D03*
D24*
X008937Y002703D03*
D25*
X009581Y002703D02*
X009925Y002703D01*
D26*
X009569Y002603D02*
X010405Y002603D01*
X009569Y002603D02*
X009569Y002803D01*
X010405Y002803D01*
X010405Y002603D01*
D27*
X020992Y015650D03*
X020992Y017382D03*
X018929Y018070D03*
X017304Y018070D03*
X017304Y016337D03*
X018929Y016337D03*
X015733Y016703D03*
X014001Y016703D03*
D28*
X013617Y023703D03*
X014617Y023703D03*
X015617Y023703D03*
D29*
X002117Y007828D03*
X002117Y006828D03*
X002117Y005828D03*
X002117Y004828D03*
X002117Y003828D03*
X002117Y002828D03*
D30*
X002179Y002828D01*
X002992Y002016D01*
X002992Y002016D01*
X002970Y002016D01*
X003639Y002016D02*
X004304Y002016D01*
X004304Y002016D01*
X004282Y002016D01*
X004304Y002016D02*
X004304Y002578D01*
X004304Y002578D01*
X005304Y002578D01*
X005862Y003136D01*
X005862Y003420D01*
X006177Y003420D02*
X006177Y003701D01*
X006492Y004016D01*
X006804Y004016D01*
X007122Y003771D02*
X007242Y003891D01*
X007617Y004266D01*
X008054Y004266D01*
X008429Y003891D01*
X009179Y003891D01*
X009367Y004078D01*
X009367Y004766D01*
X009747Y005074D02*
X008775Y005074D01*
X008775Y004444D02*
X008377Y004444D01*
X008179Y004641D01*
X007429Y004641D01*
X007294Y004506D01*
X005169Y004506D01*
X004492Y003828D01*
X003867Y003828D01*
X003742Y003953D01*
X003742Y005953D01*
X002992Y006703D01*
X002992Y011391D01*
X003992Y012391D01*
X003992Y017391D01*
X005429Y017391D01*
X005742Y017703D01*
X005742Y018306D01*
X006242Y018306D02*
X006242Y018766D01*
X006492Y019016D01*
X006492Y020078D01*
X006929Y020516D01*
X010429Y020516D01*
X010867Y020078D01*
X010867Y016578D01*
X009867Y015578D01*
X009867Y007703D01*
X009127Y006963D01*
X008775Y006963D01*
X008775Y006648D02*
X009124Y006648D01*
X010117Y007641D01*
X010117Y015453D01*
X011117Y016453D01*
X011117Y020203D01*
X010617Y020703D01*
X006117Y020703D01*
X005867Y020453D01*
X005867Y020203D01*
X005992Y020078D01*
X005992Y019016D01*
X005867Y018891D01*
X005617Y018891D01*
X005492Y018766D01*
X005492Y017766D01*
X005367Y017641D01*
X004367Y017641D01*
X004242Y017766D01*
X004242Y018306D01*
X004742Y018306D02*
X004742Y018766D01*
X004992Y019016D01*
X004992Y020703D01*
X005554Y021266D01*
X011179Y021266D01*
X011867Y020578D01*
X011867Y016078D01*
X010867Y015078D01*
X010867Y005266D01*
X010742Y005141D01*
X009992Y005141D01*
X009114Y006018D01*
X008775Y006018D01*
X008775Y006333D02*
X009122Y006333D01*
X010367Y007578D01*
X010367Y015328D01*
X011367Y016328D01*
X011367Y020328D01*
X010804Y020891D01*
X005929Y020891D01*
X005492Y020453D01*
X005492Y019016D01*
X005242Y018766D01*
X005242Y018306D01*
X004242Y019016D02*
X003992Y018766D01*
X003992Y017391D01*
X003742Y018306D02*
X003742Y016328D01*
X003492Y016078D01*
X003492Y012391D01*
X002242Y011141D01*
X002242Y009703D01*
X002304Y009641D01*
X001992Y009516D02*
X002492Y009016D01*
X002492Y008516D01*
X002742Y008266D01*
X002742Y006578D01*
X003492Y005828D01*
X003492Y003828D01*
X003742Y003578D01*
X004492Y003578D01*
X005242Y004328D01*
X007367Y004328D01*
X007492Y004453D01*
X008117Y004453D01*
X008442Y004129D01*
X008775Y004129D01*
X007929Y003953D02*
X007617Y003953D01*
X007437Y003773D01*
X007437Y003420D01*
X007752Y003420D02*
X007752Y003151D01*
X007752Y003151D01*
X007492Y002891D01*
X007492Y002891D01*
X007179Y002891D01*
X007523Y002610D02*
X007523Y002610D01*
X008054Y003141D01*
X008067Y003141D01*
X008067Y003420D01*
X007122Y003420D02*
X007122Y003771D01*
X005547Y003420D02*
X005547Y003134D01*
X005179Y002766D01*
X003742Y002766D01*
X002742Y003766D01*
X002742Y004203D01*
X002117Y004828D01*
X002992Y004953D02*
X002992Y003766D01*
X003804Y002953D01*
X005054Y002953D01*
X005232Y003131D01*
X005232Y003420D01*
X004917Y003420D02*
X004917Y003254D01*
X004804Y003141D01*
X003867Y003141D01*
X003242Y003766D01*
X003242Y005703D01*
X002117Y006828D01*
X002117Y005828D02*
X002992Y004953D01*
X002429Y003828D02*
X002117Y003828D01*
X002429Y003828D02*
X002429Y003828D01*
X003679Y002578D01*
X004304Y002578D01*
X004208Y006333D02*
X003737Y006333D01*
X003242Y006828D01*
X003242Y009098D01*
X003242Y010641D01*
X004992Y012391D01*
X004992Y014891D01*
X007242Y017141D01*
X007242Y018306D01*
X007242Y019517D01*
X007742Y019517D02*
X007742Y018306D01*
X007742Y017266D01*
X005492Y015016D01*
X005492Y012391D01*
X003742Y010641D01*
X003742Y009098D01*
X003742Y008641D01*
X003492Y008391D01*
X003492Y006953D01*
X003797Y006648D01*
X004208Y006648D01*
X004208Y006963D02*
X003857Y006963D01*
X003742Y007078D01*
X003742Y008141D01*
X004242Y008641D01*
X004242Y009098D01*
X004242Y010641D01*
X005992Y012391D01*
X005992Y015141D01*
X008242Y017391D01*
X008242Y018306D01*
X008242Y019517D01*
X008742Y019517D02*
X008742Y018306D01*
X008742Y017516D01*
X006492Y015266D01*
X006492Y012391D01*
X004742Y010641D01*
X004742Y009098D01*
X004742Y008641D01*
X004242Y008141D01*
X004242Y007312D01*
X004208Y007278D01*
X004617Y007578D02*
X004742Y007453D01*
X006617Y007453D01*
X006807Y007643D01*
X006807Y007987D01*
X006398Y008422D02*
X006742Y008766D01*
X006742Y009098D01*
X006742Y010516D01*
X008742Y012516D01*
X008742Y013976D01*
X008742Y015391D01*
X010242Y016891D01*
X010242Y018516D01*
X009867Y018641D02*
X010242Y019016D01*
X010242Y019517D01*
X010617Y019953D02*
X010617Y016703D01*
X009617Y015703D01*
X009617Y007766D01*
X009129Y007278D01*
X008775Y007278D01*
X008067Y007653D02*
X007492Y007078D01*
X005367Y007078D01*
X004617Y007578D02*
X004617Y008266D01*
X004992Y008641D01*
X004992Y010266D01*
X007242Y012516D01*
X007242Y013058D01*
X006992Y013308D01*
X006992Y015141D01*
X006929Y015203D01*
X007242Y015578D02*
X007242Y013976D01*
X007742Y013976D02*
X007742Y015328D01*
X009617Y017203D01*
X009617Y018891D01*
X009742Y019016D01*
X009742Y019517D01*
X009242Y019517D02*
X009242Y018306D01*
X009242Y017203D01*
X007492Y015453D01*
X007492Y012391D01*
X005242Y010141D01*
X005242Y009098D01*
X005242Y008641D01*
X004917Y008316D01*
X004917Y007987D01*
X005232Y007987D02*
X005232Y008256D01*
X005742Y008766D01*
X005742Y009098D01*
X005742Y010266D01*
X007742Y012266D01*
X007742Y013976D01*
X008242Y013976D02*
X008242Y015453D01*
X009867Y017078D01*
X009867Y018641D01*
X010617Y019953D02*
X010242Y020328D01*
X009242Y020328D01*
X008992Y020078D01*
X008992Y017328D01*
X007242Y015578D01*
X006742Y013976D02*
X006742Y013058D01*
X006242Y013058D02*
X006242Y013976D01*
X005742Y013976D02*
X005742Y013058D01*
X005242Y013058D02*
X005242Y013976D01*
X004742Y013976D02*
X004742Y013058D01*
X004242Y013058D02*
X004242Y013976D01*
X003742Y013976D02*
X003742Y013058D01*
X003242Y013058D02*
X003242Y013976D01*
X002992Y012391D02*
X001992Y011391D01*
X001992Y009516D01*
X002992Y012391D02*
X002992Y016078D01*
X003242Y016328D01*
X003242Y018306D01*
X003242Y020016D01*
X003429Y020203D01*
X004554Y020203D01*
X004742Y020016D01*
X004742Y019517D01*
X005242Y019517D02*
X005242Y020578D01*
X005742Y021079D01*
X010992Y021079D01*
X011617Y020453D01*
X011617Y016203D01*
X010617Y015203D01*
X010617Y007516D01*
X009742Y006641D01*
X009742Y005953D01*
X009747Y005074D02*
X009867Y004953D01*
X010867Y004953D01*
X011117Y005203D01*
X011117Y014953D01*
X012117Y015953D01*
X012117Y020703D01*
X011367Y021454D01*
X005992Y021454D01*
X004992Y022453D01*
X004992Y023641D01*
X004867Y023766D01*
X003867Y023766D01*
X003742Y023641D01*
X003742Y023139D01*
X004242Y023139D02*
X004242Y022453D01*
X003492Y021703D01*
X002367Y021703D01*
X001957Y022113D01*
X001957Y022382D01*
X001957Y022606D01*
X002532Y023181D01*
X003054Y023181D01*
X002001Y022445D02*
X001957Y022382D01*
X001929Y022391D02*
X001492Y021954D01*
X001492Y019516D01*
X001867Y019141D01*
X002157Y019141D01*
X002826Y019141D02*
X002826Y019788D01*
X002867Y019828D01*
X002826Y019828D01*
X002867Y019828D02*
X002902Y019863D01*
X002902Y020650D01*
X002902Y021113D01*
X003117Y021328D01*
X003492Y021328D01*
X004742Y022578D01*
X004742Y023139D01*
X006907Y024101D02*
X007242Y023766D01*
X007367Y023766D01*
X007492Y023641D01*
X007492Y022641D01*
X008429Y021703D01*
X011617Y021703D01*
X012929Y020391D01*
X017492Y020391D01*
X017492Y020391D01*
X018208Y020391D01*
X018262Y020336D01*
X017992Y020828D02*
X018558Y020828D01*
X019050Y020336D01*
X017992Y020828D02*
X017742Y020578D01*
X013054Y020578D01*
X011742Y021891D01*
X008742Y021891D01*
X007992Y022641D01*
X007992Y023641D01*
X008282Y023931D01*
X008282Y024203D01*
X008429Y023766D02*
X008929Y023766D01*
X008951Y023788D01*
X008951Y024203D01*
X008929Y023766D02*
X008929Y023766D01*
X009304Y023766D01*
X009657Y024119D01*
X009657Y024203D01*
X009617Y023766D02*
X010054Y023766D01*
X010326Y024038D01*
X010326Y024203D01*
X011325Y024203D01*
X011554Y023975D01*
X012054Y023266D02*
X010804Y023266D01*
X010617Y023078D01*
X010617Y022328D01*
X010429Y022141D01*
X010054Y022141D01*
X009742Y022453D01*
X009742Y023139D01*
X009492Y023641D02*
X009617Y023766D01*
X009492Y023641D02*
X009492Y022328D01*
X009304Y022141D01*
X008929Y022141D01*
X008742Y022328D01*
X008742Y023139D01*
X008242Y023139D02*
X008242Y023578D01*
X008429Y023766D01*
X007742Y024038D02*
X007742Y023139D01*
X007742Y024038D02*
X007576Y024203D01*
X006907Y024203D02*
X006907Y024101D01*
X010242Y023139D02*
X010242Y022453D01*
X012054Y023266D02*
X012367Y022953D01*
X012367Y021766D01*
X013054Y021078D01*
X013242Y020078D02*
X012617Y019453D01*
X012617Y017663D01*
X013117Y018078D02*
X012867Y018328D01*
X012867Y019328D01*
X013367Y019828D01*
X015617Y019828D01*
X015867Y019578D01*
X016117Y020078D02*
X016367Y019828D01*
X020679Y019828D01*
X022867Y017641D01*
X019867Y017578D02*
X019742Y017453D01*
X017920Y017453D01*
X017304Y018070D01*
X018117Y016016D02*
X018117Y016016D01*
X017889Y015453D02*
X017889Y015453D01*
X017867Y015453D01*
X018532Y015453D02*
X018532Y015453D01*
X018929Y015016D02*
X019201Y015288D01*
X019201Y015453D01*
X019179Y015453D01*
X019389Y015244D01*
X019867Y015244D01*
X019867Y015913D02*
X019867Y016578D01*
X018929Y015016D02*
X012929Y015016D01*
X011742Y013828D01*
X011742Y014266D02*
X012867Y015391D01*
X012867Y015578D01*
X013242Y015203D01*
X016617Y015203D01*
X016867Y015453D01*
X017220Y015453D01*
X013742Y015703D02*
X013304Y016141D01*
X013304Y018953D01*
X013117Y018078D02*
X013117Y016538D01*
X012867Y016288D01*
X012867Y015619D02*
X012867Y015578D01*
X012367Y015328D02*
X012367Y016744D01*
X012617Y016994D01*
X012367Y015328D02*
X011742Y014703D01*
X011742Y013391D02*
X011742Y012297D01*
X012367Y011672D01*
X008242Y012391D02*
X008242Y013976D01*
X008242Y012391D02*
X006242Y010391D01*
X006242Y009098D01*
X006242Y008766D01*
X006086Y008610D01*
X005961Y008610D01*
X005773Y008422D01*
X005711Y008422D01*
X005547Y008259D01*
X005547Y007987D01*
X005862Y007987D02*
X005862Y008230D01*
X006054Y008422D01*
X006398Y008422D01*
X008067Y007987D02*
X008067Y007653D01*
X006929Y017328D02*
X006992Y017391D01*
X006992Y017453D01*
X006992Y017391D02*
X006992Y018766D01*
X006742Y019016D01*
X006742Y019517D01*
X007242Y018328D02*
X007242Y018306D01*
X007742Y018306D02*
X007742Y018328D01*
X008242Y018306D02*
X008242Y018328D01*
X004242Y019016D02*
X004242Y019517D01*
X003742Y019517D02*
X003742Y018306D01*
X001929Y022391D02*
X002001Y022445D01*
X013242Y020078D02*
X016117Y020078D01*
D31*
X013304Y018953D03*
X013054Y021078D03*
X010242Y022453D03*
X010242Y018516D03*
X006929Y017328D03*
X006929Y015203D03*
X011742Y014703D03*
X011742Y014266D03*
X011742Y013828D03*
X011742Y013391D03*
X018117Y016016D03*
X019867Y016578D03*
X019867Y017578D03*
X009742Y005953D03*
X009367Y004766D03*
X007929Y003953D03*
X007179Y004828D03*
X006804Y004016D03*
X007179Y002891D03*
X007523Y002610D03*
X007179Y002328D03*
X010929Y002078D03*
X010929Y002641D03*
X011304Y003516D03*
X010929Y004453D03*
X005367Y007078D03*
X002304Y009641D03*
D32*
X002117Y002828D02*
X001617Y002828D01*
X001242Y003203D01*
X001242Y008641D01*
X001407Y008641D01*
X001242Y008641D02*
X001242Y009203D01*
X001804Y009203D01*
X001242Y009203D02*
X001242Y015891D01*
X001264Y015913D01*
X001804Y015913D01*
X002326Y015913D01*
X002367Y015953D01*
X002367Y016828D01*
X002742Y017203D01*
X002742Y018306D01*
X002367Y015953D02*
X002367Y013433D01*
X002742Y013058D01*
X001804Y014578D02*
X001804Y015244D01*
X001242Y015891D02*
X001242Y022891D01*
X001429Y023078D01*
X001929Y023078D01*
X002492Y023641D01*
X002492Y024141D01*
X002679Y024329D01*
X005054Y024328D01*
X005179Y024203D01*
X005157Y024203D01*
X005242Y024119D01*
X005242Y023139D01*
X005242Y022703D01*
X005617Y022328D01*
X006242Y022328D01*
X006242Y021828D01*
X006242Y022328D02*
X006367Y022328D01*
X006742Y022703D01*
X006742Y023139D01*
X007242Y023139D02*
X007242Y022328D01*
X006242Y023139D02*
X006242Y023828D01*
X005867Y024203D01*
X006367Y024203D01*
X005867Y024203D02*
X005826Y024203D01*
X005867Y024203D02*
X005742Y024078D01*
X005742Y023139D01*
X005179Y024203D02*
X005179Y024203D01*
X003617Y023953D02*
X003157Y023953D01*
X003054Y023851D01*
X006242Y020328D02*
X006242Y019517D01*
X006742Y018306D02*
X006742Y017766D01*
X006554Y017578D01*
X009242Y014766D02*
X009242Y013976D01*
X009117Y012953D02*
X009117Y011641D01*
X009117Y011453D01*
X009117Y011641D02*
X008492Y011016D01*
X008492Y007703D01*
X009054Y007703D01*
X008492Y007703D02*
X007367Y006578D01*
X005242Y006578D01*
X004867Y006953D01*
X002742Y009098D02*
X002742Y010453D01*
X002617Y010578D01*
X007242Y010203D02*
X007242Y009098D01*
X007242Y010203D02*
X007617Y010578D01*
X010492Y006953D02*
X010367Y006828D01*
X010367Y006016D01*
X011617Y005016D02*
X011304Y004704D01*
X011304Y004203D01*
X010929Y003829D01*
X010929Y003141D01*
X010492Y002703D01*
X008937Y002703D01*
X008837Y002113D02*
X008582Y002113D01*
X008304Y002391D01*
X008304Y002641D01*
X005492Y002203D02*
X005304Y002016D01*
X004951Y002016D01*
X011617Y005016D02*
X011617Y008172D01*
X011867Y008422D01*
X011867Y009172D01*
X012367Y009672D01*
X012367Y010672D01*
X013992Y015453D02*
X013742Y015703D01*
X013992Y015453D02*
X016358Y015453D01*
X017242Y016328D01*
X017251Y016337D01*
X017304Y016337D01*
X011554Y022557D02*
X011283Y022828D01*
X010992Y022828D01*
X009242Y022578D02*
X009242Y023139D01*
X009242Y022578D02*
X009117Y022453D01*
D33*
X009117Y022453D03*
X007242Y022328D03*
X006242Y021828D03*
X006242Y020328D03*
X006554Y017578D03*
X009242Y014766D03*
X009117Y012953D03*
X008929Y010641D03*
X007617Y010578D03*
X009054Y007703D03*
X010492Y006953D03*
X007242Y005453D03*
X004867Y007078D03*
X001804Y009203D03*
X002617Y010578D03*
X001804Y014578D03*
X002429Y021328D03*
X003617Y023953D03*
X006367Y024203D03*
X010992Y022828D03*
X013554Y021016D03*
X013554Y019391D03*
X015867Y019578D03*
X015867Y021078D03*
X017804Y024016D03*
X013742Y015703D03*
X008304Y002641D03*
X005492Y002203D03*
D34*
X006032Y002453D02*
X006032Y002619D01*
X006367Y002953D01*
X006679Y002953D01*
X006807Y003081D01*
X006807Y003420D01*
X006701Y002453D02*
X006826Y002328D01*
X007179Y002328D01*
X008837Y003294D02*
X009582Y003294D01*
X010117Y003828D01*
X010367Y003828D01*
X010367Y003890D01*
X010367Y004141D01*
X010679Y004453D01*
X010929Y004453D01*
X011679Y004079D02*
X011679Y003891D01*
X011304Y003516D01*
X011201Y002913D02*
X010929Y002641D01*
X011201Y002913D02*
X011492Y002913D01*
X011492Y002244D02*
X011095Y002244D01*
X010929Y002078D01*
X011679Y004079D02*
X012273Y004672D01*
X012367Y004672D01*
X015367Y003672D02*
X016367Y003672D01*
X017367Y002672D01*
X016367Y003588D02*
X016367Y003672D01*
X016367Y004257D02*
X016367Y004357D01*
X020367Y004672D02*
X020657Y004963D01*
X021242Y004963D01*
X021242Y005632D02*
X022523Y005632D01*
X022523Y005641D01*
X022532Y005650D01*
X022532Y006297D01*
X023179Y006297D02*
X023179Y006297D01*
X023617Y005860D01*
X023617Y005141D01*
X022867Y004391D01*
X021773Y004391D01*
X021313Y004391D01*
X021242Y004319D01*
X021773Y004391D02*
X021773Y004391D01*
X021242Y003650D02*
X020389Y003650D01*
X020367Y003672D01*
X021242Y003007D02*
X021858Y003007D01*
X022242Y003391D01*
X022867Y003391D01*
X022867Y003391D01*
X021242Y002338D02*
X020701Y002338D01*
X020367Y002672D01*
X022867Y005391D02*
X022867Y005391D01*
X022626Y005632D01*
X022523Y005632D01*
X023179Y006297D02*
X023201Y006297D01*
X021827Y008382D02*
X021117Y008382D01*
X021827Y008382D02*
X022492Y009047D01*
X022532Y009047D01*
X022492Y009047D02*
X022492Y009047D01*
X021992Y009547D02*
X021992Y010078D01*
X022367Y010453D01*
X021295Y010453D01*
X021242Y010400D01*
X021242Y011069D02*
X021983Y011069D01*
X022867Y011953D01*
X022054Y011953D01*
X021626Y012382D01*
X021242Y012382D01*
X021242Y011713D02*
X021242Y011703D01*
X021211Y011672D01*
X020367Y011672D01*
X020367Y010672D02*
X020367Y010672D01*
X020367Y010485D01*
X021095Y009757D01*
X021242Y009757D01*
X021242Y009088D02*
X021532Y009088D01*
X021992Y009547D01*
X022867Y009953D02*
X023179Y009641D01*
X023179Y009047D01*
X023201Y009047D01*
X023201Y009047D01*
X022367Y010453D02*
X022367Y010453D01*
X022867Y010953D01*
X022867Y010953D01*
X018532Y015453D02*
X018211Y015453D01*
X017889Y015453D01*
X018211Y015453D02*
X018211Y015922D01*
X018117Y016016D01*
X017367Y012672D02*
X017032Y012672D01*
X016367Y012007D01*
X016367Y011338D02*
X015701Y010672D01*
X015367Y010672D01*
X008775Y005388D02*
X007307Y005388D01*
X007242Y005453D01*
X006619Y005388D02*
X007179Y004828D01*
X006619Y005388D02*
X004208Y005388D01*
X004208Y006018D02*
X004682Y006018D01*
X004867Y006203D01*
X004867Y007078D01*
X002076Y008641D02*
X001992Y008556D01*
X002157Y019828D02*
X002157Y019994D01*
X002429Y020266D01*
X002429Y021328D01*
D35*
X012907Y021976D02*
X013554Y021328D01*
X013554Y021016D01*
X013554Y021016D01*
X014492Y021712D02*
X014617Y022578D01*
X015407Y022578D01*
X016076Y022578D02*
X016076Y023244D01*
X015617Y023703D01*
X014617Y023703D02*
X014617Y022578D01*
X013576Y022578D01*
X012907Y022578D02*
X012907Y021976D01*
X012907Y022578D02*
X012907Y022994D01*
X013617Y023703D01*
X016076Y022578D02*
X016076Y021288D01*
X015867Y021078D01*
X017242Y022341D02*
X017242Y022953D01*
X017242Y022341D02*
X018262Y021321D01*
X018117Y019453D02*
X015992Y019453D01*
X015867Y019578D01*
X015867Y016837D01*
X015733Y016703D01*
X016492Y016828D02*
X016492Y016141D01*
X016179Y015828D01*
X014492Y015828D01*
X014001Y016320D01*
X014001Y016703D01*
X014001Y017962D01*
X014492Y018453D01*
X014492Y018445D01*
X014492Y018453D02*
X013554Y019391D01*
X016492Y016828D02*
X016742Y017078D01*
X020688Y017078D01*
X020992Y017382D01*
X020992Y015650D02*
X022170Y015650D01*
X022867Y014953D01*
X022867Y014953D01*
X020367Y012672D02*
X019367Y012672D01*
X018617Y011922D01*
X018617Y008422D01*
X016867Y008422D01*
X017992Y007297D01*
X019429Y007297D01*
X019742Y006985D01*
X020470Y007713D01*
X021117Y007713D01*
X021117Y006985D01*
X021117Y006985D01*
X021117Y007007D01*
X021117Y006338D02*
X021470Y006338D01*
X021992Y006860D01*
X021992Y007485D01*
X022679Y008172D01*
X022867Y008172D01*
X021117Y008382D02*
X019764Y008382D01*
X019742Y008360D01*
X019742Y008381D01*
X019742Y008422D01*
X019889Y008275D01*
X019742Y008422D02*
X019742Y009360D01*
X020054Y009672D01*
X020367Y009672D01*
X019804Y007047D02*
X019867Y006985D01*
X019804Y007047D02*
X019742Y006985D01*
X019742Y006964D01*
X019742Y006172D01*
X020242Y005672D01*
X020367Y005672D01*
X019450Y006672D02*
X016367Y006672D01*
X015367Y005672D01*
X015367Y004672D01*
X016367Y004672D01*
X016367Y004357D01*
X016367Y004672D02*
X017367Y004672D01*
X017367Y003672D01*
X019450Y006672D02*
X019742Y006964D01*
X018929Y016337D02*
X018929Y016337D01*
X018804Y016453D01*
X017438Y016453D01*
X017304Y016337D01*
X017304Y018070D02*
X017304Y018891D01*
X017242Y018953D01*
X018117Y019453D02*
X018929Y018641D01*
X018929Y018070D01*
X020117Y023203D02*
X019317Y024003D01*
X019001Y024003D01*
X018332Y024003D02*
X017817Y024003D01*
X017804Y024016D01*
X008929Y010641D02*
X009117Y010453D01*
X009117Y009515D01*
X008929Y010641D02*
X008929Y010641D01*
X004867Y007078D02*
X004867Y006953D01*
X002117Y007828D02*
X002117Y008556D01*
X001992Y008556D01*
D36*
X022867Y010953D03*
D37*
X020117Y018453D03*
X020117Y023203D03*
M02*
