%
M48
M72
T01C0.0197
T02C0.0236
T03C0.0320
T04C0.0360
T05C0.0374
T06C0.0400
T07C0.0787
T08C0.0860
T09C0.0906
%
T01
X6804Y4016
X7179Y4828
X7929Y3953
X7179Y2891
X7523Y2610
X7179Y2328
X9367Y4766
X9742Y5953
X10929Y4453
X11304Y3516
X10929Y2641
X10929Y2078
X5367Y7078
X2304Y9641
X6929Y15203
X6929Y17328
X10242Y18516
X13054Y21078
X13304Y18953
X10242Y22453
X11742Y14703
X11742Y14266
X11742Y13828
X11742Y13391
X18117Y16016
X19867Y16578
X19867Y17578
T02
X15867Y19578
X15867Y21078
X13554Y21016
X13554Y19391
X10992Y22828
X9117Y22453
X7242Y22328
X6242Y21828
X6242Y20328
X6554Y17578
X9242Y14766
X9117Y12953
X8929Y10641
X7617Y10578
X9054Y7703
X10492Y6953
X7242Y5453
X4867Y7078
X1804Y9203
X2617Y10578
X1804Y14578
X2429Y21328
X3617Y23953
X6367Y24203
X13742Y15703
X17804Y24016
X22867Y10953
X8304Y2641
X5492Y2203
T03
X11867Y8422
X12867Y8422
X12367Y9672
X12367Y10672
X12367Y11672
X12367Y12672
X15367Y12672
X15367Y11672
X15367Y10672
X15367Y9672
X15867Y8422
X16867Y8422
X17367Y9672
X17367Y10672
X17367Y11672
X17367Y12672
X20367Y12672
X20367Y11672
X20367Y10672
X20367Y9672
X22867Y9953
X22867Y10953
X22867Y11953
X22867Y13953
X22867Y14953
X22867Y16641
X22867Y17641
X17242Y18953
X17242Y22953
X14867Y8422
X15367Y5672
X15367Y4672
X15367Y3672
X15367Y2672
X17367Y2672
X17367Y3672
X17367Y4672
X17367Y5672
X20367Y5672
X20367Y4672
X20367Y3672
X20367Y2672
X22867Y3391
X22867Y4391
X22867Y5391
X22867Y7172
X22867Y8172
X12367Y5672
X12367Y4672
X12367Y3672
X12367Y2672
T04
X2117Y2828
X2117Y3828
X2117Y4828
X2117Y5828
X2117Y6828
X2117Y7828
T05
X18262Y20336
X19050Y20336
X19050Y21321
X18262Y21321
T06
X15617Y23703
X14617Y23703
X13617Y23703
T07
X1617Y1828
X1617Y23953
X23429Y23953
X23429Y1828
T08
X20117Y18453
X20117Y23203
T09
X20117Y23199
X20117Y18458
M30
