M48
M72
T01C0.024in
T02C0.032in
T03C0.036in
T04C0.037in
T05C0.040in
T06C0.086in
T07C0.091in
T08C0.100in
%
T01
X1016Y635
X1156Y635
X1236Y635
X1316Y635
X1396Y635
X2075Y828
X2346Y885
X2486Y885
X1901Y1465
X1711Y1465
X1886Y1640
X1391Y1825
X1396Y1440
X1316Y1440
X1236Y1440
X1156Y1440
X1016Y1440
X811Y1795
X761Y1845
X711Y1895
X661Y1945
X586Y2590
X536Y2640
X536Y2705
X421Y2740
X1391Y2655
X2346Y2825
X2486Y2900
T02
X2646Y2690
X2646Y2590
X2646Y2490
X2646Y2390
X2646Y2290
X2646Y2190
X2646Y2090
X2646Y1990
X2646Y1890
X2646Y1790
X2646Y1690
X2646Y1590
X2646Y1490
X2646Y1390
X3121Y1665
X3221Y1665
X3421Y1665
X3521Y1665
X3621Y1665
X3601Y1845
X3716Y1940
X3816Y1940
X3816Y2115
X3716Y2115
X3601Y2145
X3571Y2245
X3671Y2245
X3771Y2245
X3471Y2245
X3471Y2145
X3471Y2045
X3471Y1945
X3471Y1845
X3171Y1845
X3171Y1945
X3171Y2045
X3171Y2145
X3471Y2545
X3571Y2545
X3671Y2545
X3771Y2545
X3771Y2665
X3671Y2665
X3571Y2665
X3571Y2965
X3671Y2965
X3771Y2965
X2046Y2690
X2046Y2590
X1926Y2590
X1926Y2690
X1926Y2805
X1926Y2905
X1766Y2905
X1626Y2690
X1626Y2590
X1506Y2590
X1506Y2690
X1506Y2490
X1506Y2390
X1506Y2290
X1506Y2190
X1506Y2090
X1506Y1990
X1626Y1990
X1626Y2090
X1626Y2190
X1626Y2290
X1626Y2390
X1626Y2490
X1926Y2490
X1926Y2390
X1926Y2290
X1926Y2190
X1926Y2090
X1926Y1990
X2046Y1990
X2046Y2090
X2046Y2190
X2046Y2290
X2046Y2390
X2046Y2490
X1466Y2905
X1041Y2910
X1041Y3010
X826Y2910
X636Y2910
X421Y2910
X421Y3010
X165Y2774
X165Y2474
X143Y2403
X143Y2303
X541Y1940
X541Y1840
X416Y1760
X361Y1890
X261Y1890
X586Y1705
X416Y1460
X271Y1560
X166Y1560
X166Y1260
X271Y1260
X586Y1405
X906Y1390
X906Y1490
X906Y1590
X906Y1690
X906Y1790
X906Y1890
X906Y1990
X906Y2090
X906Y2190
X906Y2290
X906Y2390
X906Y2490
X906Y2590
X906Y2690
X1506Y1890
X1506Y1790
X1506Y1690
X1506Y1590
X1506Y1490
X1506Y1390
X1506Y1290
X1506Y1190
X1506Y1090
X1506Y990
X1506Y890
X1506Y790
X1811Y670
X1796Y590
X1681Y455
X1681Y350
X1796Y290
X2146Y535
X2196Y400
X2296Y400
X2396Y400
X2496Y400
X2546Y535
X2486Y635
X2486Y735
X2486Y835
X2648Y853
X2748Y853
X2821Y950
X3121Y950
X3171Y1035
X3171Y1135
X3171Y1235
X3171Y1335
X3471Y1335
X3471Y1235
X3471Y1135
X3471Y1035
X3471Y935
X3571Y935
X3671Y935
X3771Y935
X3741Y1035
X3601Y1035
X3601Y1335
X3741Y1335
X3771Y635
X3671Y635
X3571Y635
X3471Y635
X3486Y535
X3581Y535
X3676Y535
X3771Y535
X3771Y235
X3676Y235
X3581Y235
X3486Y235
X2666Y250
X2666Y650
X2211Y670
X2217Y784
X2217Y884
X2046Y1390
X2046Y1490
X2046Y1590
X2046Y1690
X2046Y1790
X2046Y1890
X1926Y1890
X1926Y1790
X1626Y1790
X1626Y1890
X906Y1290
X906Y1190
X906Y1090
X906Y990
X906Y890
X906Y790
X756Y495
X656Y460
X756Y365
X756Y260
X456Y245
X456Y345
X256Y460
X1056Y365
X1056Y260
X1156Y495
X1381Y455
X1381Y350
T03
X1921Y250
X2021Y250
X2776Y250
X2876Y250
X3866Y1135
X3866Y1235
T04
X641Y880
X563Y880
X563Y781
X641Y781
T05
X2246Y250
X2346Y250
X2446Y250
X2876Y630
X3076Y630
X3871Y435
X3871Y335
X3871Y235
X3871Y2765
X3871Y2865
X3871Y2965
T06
X456Y1068
X456Y593
T07
X456Y593
X456Y1067
T08
X186Y240
X3111Y240
X3111Y2940
X186Y2940
M30
