G75*
G70*
%OFA0B0*%
%FSLAX24Y24*%
%IPPOS*%
%LPD*%
%AMOC8*
5,1,8,0,0,1.08239X$1,22.5*
%
%ADD10O,0.1040X0.0520*%
%ADD11O,0.0520X0.1040*%
%ADD12OC8,0.0574*%
%ADD13O,0.1200X0.0600*%
%ADD14OC8,0.0520*%
%ADD15OC8,0.0630*%
%ADD16C,0.0630*%
%ADD17C,0.0520*%
%ADD18O,0.0560X0.1120*%
%ADD19O,0.1120X0.0560*%
%ADD20C,0.1000*%
%ADD21OC8,0.1000*%
%ADD22O,0.0600X0.1200*%
%ADD23OC8,0.0400*%
%ADD24C,0.0240*%
%ADD25C,0.0160*%
%ADD26OC8,0.1260*%
D10*
X034709Y021453D03*
X034709Y020453D03*
X034709Y019453D03*
X034709Y018453D03*
X031709Y018453D03*
X031709Y019453D03*
X031709Y020453D03*
X031709Y021453D03*
X026459Y021903D03*
X026459Y020903D03*
X026459Y019903D03*
X026459Y018903D03*
X026459Y017903D03*
X026459Y016903D03*
X026459Y015903D03*
X026459Y014903D03*
X026459Y013903D03*
X031709Y013353D03*
X031709Y012353D03*
X031709Y011353D03*
X031709Y010353D03*
X034709Y010353D03*
X034709Y011353D03*
X034709Y012353D03*
X034709Y013353D03*
X024859Y008353D03*
X024859Y007353D03*
X024859Y006353D03*
X025459Y005353D03*
X022109Y006703D03*
X021459Y005353D03*
X018109Y006703D03*
X015059Y007903D03*
X015059Y008903D03*
X015059Y009903D03*
X015059Y010903D03*
X015059Y011903D03*
X015059Y012903D03*
X015059Y013903D03*
X015059Y014903D03*
X015059Y015903D03*
X015059Y016903D03*
X015059Y017903D03*
X015059Y018903D03*
X016259Y018903D03*
X016259Y017903D03*
X016259Y019903D03*
X016259Y020903D03*
X016259Y021903D03*
X016259Y022903D03*
X016259Y023903D03*
X016259Y024903D03*
X015059Y024903D03*
X015059Y023903D03*
X015059Y022903D03*
X015059Y021903D03*
X015059Y020903D03*
X015059Y019903D03*
X019259Y019903D03*
X019259Y020903D03*
X019259Y021903D03*
X019259Y022903D03*
X019259Y023903D03*
X019259Y024903D03*
X020459Y024903D03*
X020459Y023903D03*
X020459Y022903D03*
X020459Y021903D03*
X020459Y020903D03*
X020459Y019903D03*
X020459Y018903D03*
X020459Y017903D03*
X020459Y016903D03*
X020459Y015903D03*
X020459Y014903D03*
X020459Y013903D03*
X019259Y017903D03*
X019259Y018903D03*
X026459Y022903D03*
X026459Y023903D03*
X026459Y024903D03*
X026459Y025903D03*
X026459Y026903D03*
X020459Y026903D03*
X020459Y025903D03*
X019259Y025903D03*
X019259Y026903D03*
X016259Y026903D03*
X016259Y025903D03*
X015059Y025903D03*
X015059Y026903D03*
X009059Y026903D03*
X009059Y025903D03*
X009059Y024903D03*
X009059Y023903D03*
X009059Y022903D03*
X009059Y021903D03*
X009059Y020903D03*
X009059Y019903D03*
X009059Y018903D03*
X009059Y017903D03*
X009059Y016903D03*
X009059Y015903D03*
X009059Y014903D03*
X009059Y013903D03*
X009059Y012903D03*
X009059Y011903D03*
X009059Y010903D03*
X009059Y009903D03*
X009059Y008903D03*
X009059Y007903D03*
X007559Y004953D03*
X011559Y004953D03*
D11*
X006559Y004603D03*
X002559Y004603D03*
X026659Y006503D03*
X026659Y002503D03*
X034709Y006353D03*
X035709Y006353D03*
X036709Y006353D03*
X037709Y006353D03*
X037709Y009353D03*
X036709Y009353D03*
X035709Y009353D03*
X034709Y009353D03*
X034209Y016653D03*
X035209Y016653D03*
X036209Y016653D03*
X032209Y016653D03*
X031209Y016653D03*
X034709Y022453D03*
X035709Y022453D03*
X036709Y022453D03*
X037709Y022453D03*
X037709Y025453D03*
X036709Y025453D03*
X035709Y025453D03*
X034709Y025453D03*
D12*
X006413Y008795D03*
X005626Y008795D03*
X005626Y007811D03*
X006413Y007811D03*
D13*
X038709Y004353D03*
X038709Y003353D03*
X038709Y002353D03*
X038709Y027653D03*
X038709Y028653D03*
X038709Y029653D03*
D14*
X004559Y002453D03*
X004559Y003453D03*
X007559Y003653D03*
X007559Y002603D03*
X010559Y002603D03*
X010559Y003653D03*
X013809Y003503D03*
X013809Y004553D03*
X016809Y004553D03*
X016809Y003503D03*
X017959Y002903D03*
X017959Y005903D03*
X021959Y004003D03*
X022959Y004003D03*
X023959Y004003D03*
X024959Y004003D03*
X028209Y009503D03*
X031209Y009503D03*
X036009Y010353D03*
X037409Y010353D03*
X037409Y013353D03*
X036009Y013353D03*
X036009Y018453D03*
X037159Y021153D03*
X036009Y021453D03*
X038159Y021153D03*
X037709Y026653D03*
X036709Y026653D03*
X035709Y026653D03*
X035709Y029653D03*
X036709Y029653D03*
X037709Y029653D03*
X019259Y029053D03*
X019259Y028053D03*
X017659Y029053D03*
X014659Y029053D03*
X010409Y029103D03*
X010409Y030103D03*
X004209Y030103D03*
X004209Y029103D03*
X001649Y027736D03*
X001649Y024736D03*
X001429Y024033D03*
X001429Y023033D03*
X004159Y017603D03*
X005859Y017053D03*
X004159Y014603D03*
X002709Y015603D03*
X001659Y015603D03*
X001659Y012603D03*
X002709Y012603D03*
X005859Y014053D03*
X034859Y005353D03*
X035809Y005353D03*
X036759Y005353D03*
X037709Y005353D03*
X037709Y002353D03*
X036759Y002353D03*
X035809Y002353D03*
X034859Y002353D03*
D15*
X026484Y008528D03*
X022169Y007843D03*
X037159Y019403D03*
X005409Y018403D03*
X003609Y018903D03*
D16*
X002609Y018903D03*
X005409Y019403D03*
X022169Y008843D03*
X027484Y008528D03*
X038159Y019403D03*
D17*
X008259Y029103D03*
X006359Y029103D03*
D18*
X019209Y002503D03*
X020209Y002503D03*
X027759Y002503D03*
X028759Y002503D03*
D19*
X038659Y011353D03*
X038659Y012353D03*
D20*
X028759Y006303D03*
D21*
X030759Y006303D03*
D22*
X024459Y002503D03*
X023459Y002503D03*
X022459Y002503D03*
D23*
X020754Y008278D03*
X023459Y008853D03*
X024859Y008853D03*
X019009Y014653D03*
X017109Y014653D03*
X018859Y016403D03*
X013909Y018253D03*
X013959Y014403D03*
X013159Y014403D03*
X012359Y014403D03*
X011559Y014403D03*
X010159Y014403D03*
X008109Y017953D03*
X007609Y018453D03*
X007109Y018953D03*
X006609Y019453D03*
X005859Y025903D03*
X005359Y026403D03*
X005359Y027053D03*
X004209Y027403D03*
X013909Y026553D03*
X023459Y028253D03*
X024859Y029003D03*
X013959Y006353D03*
X013159Y006353D03*
X012359Y006353D03*
X011559Y006353D03*
X010159Y006353D03*
D24*
X019009Y010023D02*
X020754Y008278D01*
X019009Y010023D02*
X019009Y014653D01*
X023459Y008853D02*
X023459Y028253D01*
D25*
X024859Y029003D02*
X024859Y008853D01*
X018859Y016403D02*
X017109Y014653D01*
X013959Y014403D02*
X013959Y006353D01*
X013159Y006353D02*
X013159Y014403D01*
X012359Y014403D02*
X012359Y006353D01*
X011559Y006353D02*
X011559Y014403D01*
X010159Y014403D02*
X010159Y006353D01*
X008109Y017953D02*
X008109Y021253D01*
X005859Y023503D01*
X005859Y025903D01*
X005359Y026403D02*
X005359Y023303D01*
X007609Y021053D01*
X007609Y018453D01*
X007109Y018953D02*
X007109Y020853D01*
X004859Y023103D01*
X004859Y026703D01*
X005209Y027053D01*
X005359Y027053D01*
X004359Y027253D02*
X004359Y022903D01*
X006609Y020653D01*
X006609Y019453D01*
X013909Y018253D02*
X013909Y026553D01*
X004359Y027253D02*
X004209Y027403D01*
D26*
X004559Y010678D03*
X004559Y005928D03*
M02*
